<svg width="96" height="5" viewBox="0 0 96 5" fill="none" xmlns="http://www.w3.org/2000/svg">
<path d="M25.878 1.65027C25.9001 1.33581 26.044 1.04194 26.2796 0.829904C26.5154 0.617868 26.8246 0.504031 27.1431 0.512122C27.4642 0.511383 27.7736 0.631505 28.0086 0.848135C28.2434 1.06477 28.3864 1.36169 28.4082 1.67872C28.4138 1.8396 28.3839 1.99975 28.3206 2.14804C28.2573 2.29634 28.1622 2.42924 28.0418 2.53752C27.9214 2.6458 27.7788 2.72688 27.6235 2.77511C27.4683 2.82335 27.3044 2.8376 27.1431 2.81687C26.822 2.81761 26.5126 2.69749 26.2777 2.48085C26.0428 2.26422 25.8999 1.9673 25.878 1.65027Z" fill="white"/>
<path d="M32.0879 1.56673C32.1319 1.19974 32.3013 0.858647 32.568 0.599924C32.8346 0.341201 33.1827 0.180364 33.5542 0.144043C33.7393 0.147742 33.9218 0.187479 34.0913 0.260984C34.2608 0.33449 34.414 0.440324 34.5422 0.57244C34.6704 0.704556 34.7709 0.860365 34.8382 1.03097C34.9055 1.20157 34.9382 1.38362 34.9344 1.56673C34.9476 1.75939 34.9185 1.95259 34.849 2.13305C34.7796 2.31352 34.6716 2.47696 34.5322 2.61215C34.3929 2.74733 34.2255 2.85105 34.0419 2.91618C33.8582 2.9813 33.6624 3.00628 33.468 2.98941C33.283 2.98571 33.1005 2.94597 32.9309 2.87247C32.7615 2.79896 32.6083 2.69313 32.48 2.56101C32.3519 2.4289 32.2514 2.27309 32.1841 2.10248C32.1168 1.93188 32.084 1.74983 32.0879 1.56673Z" fill="white"/>
<path d="M19.3227 1.5365C19.1502 0.569073 19.754 0 20.6741 0C21.1035 0.0431193 21.5003 0.246652 21.7834 0.569136C22.0666 0.89162 22.2148 1.30879 22.198 1.73567C22.198 2.58928 21.4791 3.27217 20.8466 3.27217C20.2141 3.27217 19.524 2.50392 19.3227 1.5365Z" fill="white"/>
<path d="M6.64218 1.65208C6.68824 1.34889 6.84271 1.07211 7.07752 0.872071C7.31232 0.672032 7.61186 0.562012 7.9217 0.562012C8.23153 0.562012 8.53108 0.672032 8.76587 0.872071C9.00068 1.07211 9.15515 1.34889 9.20121 1.65208C9.20202 1.81163 9.16892 1.96955 9.10407 2.11562C9.03921 2.26169 8.94405 2.39263 8.82476 2.49995C8.70546 2.60727 8.5647 2.68857 8.4116 2.73858C8.2585 2.78859 8.09649 2.80619 7.93607 2.79023C7.61818 2.78607 7.31243 2.66875 7.07482 2.45974C6.8372 2.25072 6.68362 1.96401 6.64218 1.65208Z" fill="white"/>
<path d="M12.7947 1.56673C12.8368 1.17923 13.021 0.82047 13.3125 0.558307C13.6039 0.296144 13.9823 0.148763 14.3761 0.144043C14.5623 0.143883 14.7466 0.181004 14.9179 0.253172C15.0892 0.32534 15.244 0.431062 15.3729 0.563975C15.5019 0.696889 15.6023 0.854245 15.6682 1.02657C15.7341 1.1989 15.764 1.38264 15.7562 1.56673C15.7739 1.75793 15.7488 1.95064 15.6829 2.1312C15.6169 2.31175 15.5116 2.47573 15.3743 2.61149C15.2372 2.74726 15.0715 2.8515 14.889 2.91681C14.7066 2.98212 14.5119 3.0069 14.3185 2.98941C14.1217 3.00542 13.9236 2.98028 13.7371 2.91561C13.5506 2.85093 13.3801 2.74818 13.2364 2.61402C13.0927 2.47986 12.9791 2.31728 12.903 2.13686C12.8269 1.95643 12.79 1.76218 12.7947 1.56673Z" fill="white"/>
<path d="M1.01053 1.5365C1.01053 0.569073 1.47058 0 2.39069 0C2.60621 0.0178828 2.81604 0.0778058 3.00806 0.176314C3.20008 0.274823 3.37049 0.409969 3.50948 0.573961C3.64847 0.737954 3.75329 0.927548 3.81788 1.13182C3.88247 1.33608 3.90558 1.55098 3.88585 1.76413C3.88409 2.13352 3.75035 2.49038 3.50829 2.77158C3.26623 3.05278 2.93145 3.24018 2.5632 3.30062C1.90188 3.30062 1.24055 2.50392 1.01053 1.5365Z" fill="white"/>
<path d="M86.0292 2.4171C86.0514 2.10509 86.1963 1.81412 86.4328 1.60665C86.6693 1.39918 86.9786 1.29174 87.2943 1.30741C87.4567 1.29976 87.6191 1.32388 87.7721 1.3784C87.925 1.43292 88.0656 1.51676 88.1858 1.62512C88.3059 1.73348 88.4034 1.86424 88.4725 2.0099C88.5415 2.15557 88.5808 2.31328 88.5882 2.47401C88.5895 2.63252 88.5566 2.78947 88.4914 2.9343C88.4263 3.07912 88.3306 3.20846 88.2107 3.31361C88.0908 3.41875 87.9495 3.49726 87.7964 3.54385C87.6433 3.59044 87.482 3.60403 87.3231 3.5837C87.1607 3.59135 86.9983 3.56723 86.8453 3.51271C86.6924 3.45819 86.5518 3.37435 86.4316 3.26599C86.3114 3.15763 86.2141 3.02687 86.1449 2.88121C86.0759 2.73554 86.0366 2.57783 86.0292 2.4171Z" fill="white"/>
<path d="M92.1825 2.33368C92.2212 1.97223 92.3859 1.6354 92.6482 1.38099C92.9105 1.12658 93.2542 0.970471 93.6201 0.939454C93.8064 0.939294 93.9907 0.976415 94.162 1.04858C94.3332 1.12075 94.4881 1.22647 94.617 1.35939C94.7459 1.4923 94.8464 1.64966 94.9122 1.82198C94.9781 1.99431 95.0081 2.17805 95.0003 2.36214C95.0135 2.55107 94.9852 2.74059 94.9172 2.91762C94.8492 3.09466 94.7432 3.25499 94.6066 3.38754C94.4699 3.5201 94.3058 3.62172 94.1256 3.6854C93.9453 3.74907 93.7533 3.77329 93.5626 3.75637C93.3765 3.75653 93.1922 3.7194 93.0209 3.64724C92.8495 3.57507 92.6948 3.46935 92.5658 3.33643C92.4369 3.20352 92.3364 3.04616 92.2706 2.87383C92.2047 2.70151 92.1748 2.51777 92.1825 2.33368Z" fill="white"/>
<path d="M79.4158 2.30488C79.2147 1.33745 79.8184 0.654567 80.7385 0.796835C81.1707 0.833184 81.5717 1.03477 81.8562 1.35883C82.1407 1.68288 82.2864 2.10388 82.2625 2.53251C82.2596 2.90608 82.1218 3.26632 81.874 3.54812C81.6261 3.82992 81.2845 4.01468 80.911 4.069C80.2784 4.069 79.5884 3.2723 79.4158 2.30488Z" fill="white"/>
<path d="M66.736 2.4171C66.7581 2.10509 66.903 1.81412 67.1396 1.60665C67.3761 1.39918 67.6854 1.29174 68.001 1.30741C68.3242 1.29963 68.6376 1.41737 68.874 1.63543C69.1105 1.85348 69.2513 2.1545 69.2662 2.47401C69.2675 2.63252 69.2345 2.78947 69.1694 2.9343C69.1043 3.07912 69.0085 3.20846 68.8887 3.31361C68.7688 3.41875 68.6276 3.49726 68.4745 3.54385C68.3214 3.59044 68.1599 3.60403 68.001 3.5837C67.678 3.59148 67.3646 3.47374 67.1281 3.25568C66.8917 3.03763 66.7509 2.73661 66.736 2.4171Z" fill="white"/>
<path d="M72.8604 2.33368C72.9054 1.96983 73.0758 1.63247 73.343 1.3785C73.6101 1.12452 73.9576 0.969462 74.3267 0.939454C74.513 0.939294 74.6972 0.976415 74.8686 1.04858C75.0399 1.12075 75.1946 1.22647 75.3235 1.35939C75.4525 1.4923 75.5529 1.64966 75.6188 1.82198C75.6847 1.99431 75.7147 2.17805 75.7069 2.36214C75.7158 2.55248 75.6835 2.74251 75.6121 2.9195C75.5408 3.09649 75.4321 3.25635 75.2932 3.38837C75.1544 3.52039 74.9886 3.62152 74.807 3.68498C74.6255 3.74845 74.4323 3.77279 74.2404 3.75637C74.0554 3.75267 73.873 3.71293 73.7034 3.63942C73.534 3.56592 73.3808 3.46008 73.2526 3.32797C73.1244 3.19585 73.0238 3.04004 72.9565 2.86944C72.8892 2.69884 72.8565 2.51679 72.8604 2.33368Z" fill="white"/>
<path d="M60.1228 2.30488C59.9215 1.33745 60.5253 0.654567 61.4454 0.796835C61.8777 0.833184 62.2785 1.03477 62.5631 1.35883C62.8476 1.68288 62.9933 2.10388 62.9693 2.53251C62.9693 3.38612 62.2792 4.069 61.618 4.069C60.9566 4.069 60.3816 3.2723 60.1228 2.30488Z" fill="white"/>
<path d="M47.4147 2.41795C47.4608 2.11476 47.6152 1.83798 47.85 1.63794C48.0848 1.4379 48.3844 1.32788 48.6942 1.32788C49.0041 1.32788 49.3036 1.4379 49.5384 1.63794C49.7732 1.83798 49.9277 2.11476 49.9737 2.41795C49.9751 2.57646 49.942 2.73341 49.8769 2.87824C49.8118 3.02307 49.7161 3.15241 49.5962 3.25755C49.4763 3.36269 49.3351 3.44121 49.1819 3.4878C49.0288 3.53438 48.8674 3.54797 48.7086 3.52765C48.3933 3.53043 48.0879 3.41921 47.8496 3.21488C47.6114 3.01054 47.4567 2.72716 47.4147 2.41795Z" fill="white"/>
<path d="M53.5665 2.33405C53.6052 1.9726 53.7699 1.63576 54.0322 1.38135C54.2946 1.12694 54.6381 0.970834 55.0042 0.939817C55.1915 0.93549 55.3778 0.969778 55.5511 1.0405C55.7243 1.11123 55.8808 1.21684 56.0105 1.35064C56.1404 1.48443 56.2406 1.64348 56.3049 1.81768C56.3693 1.99188 56.3964 2.17741 56.3843 2.3625C56.4027 2.55261 56.378 2.7444 56.3119 2.92381C56.2457 3.10323 56.1398 3.26572 56.002 3.3994C55.8641 3.53308 55.6978 3.63455 55.5152 3.69637C55.3326 3.7582 55.1384 3.77882 54.9467 3.75673C54.7604 3.75689 54.5762 3.71977 54.4048 3.6476C54.2335 3.57543 54.0787 3.46971 53.9498 3.3368C53.8209 3.20388 53.7205 3.04653 53.6546 2.8742C53.5887 2.70187 53.5587 2.51813 53.5665 2.33405Z" fill="white"/>
<path d="M39.9962 2.30225C39.922 2.10813 39.9028 1.8976 39.9406 1.69345C39.9785 1.4893 40.0721 1.29929 40.2114 1.14399C40.3505 0.988685 40.5299 0.874003 40.7303 0.81235C40.9306 0.750697 41.144 0.744421 41.3477 0.794202C41.7747 0.83746 42.1684 1.04203 42.4469 1.36532C42.7254 1.68862 42.8672 2.10574 42.8428 2.52987C42.8399 2.90345 42.7022 3.26369 42.4543 3.54549C42.2064 3.82728 41.8649 4.01204 41.4914 4.06637C40.8588 4.06637 40.255 3.26967 39.9962 2.30225Z" fill="white"/>
</svg>
