<svg width="135" height="3" viewBox="0 0 135 3" fill="none" xmlns="http://www.w3.org/2000/svg">
<path d="M0 1.08826C0 0.502054 0.275862 0.157227 0.827586 0.157227C0.956827 0.168063 1.08264 0.204373 1.19779 0.264064C1.31293 0.323755 1.41511 0.405646 1.49846 0.505016C1.5818 0.604387 1.64465 0.719271 1.68338 0.843046C1.72212 0.966821 1.73597 1.09704 1.72414 1.22619C1.72309 1.45002 1.64289 1.66627 1.49774 1.83666C1.35259 2.00705 1.15185 2.1206 0.931035 2.15723C0.534483 2.15723 0.137931 1.67447 0 1.08826Z" fill="#FFFBF2"/>
<path d="M10.7283 1.13917C10.7589 0.935585 10.8615 0.749739 11.0175 0.61542C11.1736 0.481101 11.3726 0.407227 11.5785 0.407227C11.7843 0.407227 11.9834 0.481101 12.1394 0.61542C12.2954 0.749739 12.3981 0.935585 12.4287 1.13917C12.4292 1.2463 12.4072 1.35234 12.3641 1.45042C12.321 1.5485 12.2578 1.63642 12.1785 1.70848C12.0993 1.78054 12.0057 1.83514 11.904 1.86871C11.8023 1.90229 11.6946 1.91411 11.588 1.90339C11.3768 1.9006 11.1736 1.82183 11.0157 1.68148C10.8579 1.54114 10.7558 1.34862 10.7283 1.13917Z" fill="#FFFBF2"/>
<path d="M21.4289 1.15532C21.4581 0.883469 21.586 0.631777 21.7883 0.447856C21.9907 0.263934 22.2534 0.160538 22.5268 0.157227C22.656 0.157115 22.784 0.183157 22.9029 0.233787C23.0218 0.284416 23.1293 0.358586 23.2188 0.451832C23.3083 0.545078 23.378 0.655472 23.4238 0.77637C23.4695 0.897268 23.4903 1.02617 23.4849 1.15532C23.4972 1.28946 23.4798 1.42466 23.434 1.55133C23.3882 1.67799 23.3151 1.79303 23.2198 1.88828C23.1246 1.98353 23.0095 2.05665 22.8828 2.10247C22.7562 2.14829 22.621 2.16568 22.4868 2.15341C22.3501 2.16464 22.2126 2.147 22.0832 2.10163C21.9537 2.05626 21.8353 1.98417 21.7355 1.89005C21.6357 1.79593 21.5569 1.68187 21.504 1.55529C21.4512 1.42871 21.4256 1.29244 21.4289 1.15532Z" fill="#FFFBF2"/>
<path d="M32.509 1.08789C32.3905 0.416755 32.8051 0.0219727 33.4367 0.0219727C33.7316 0.0518858 34.0039 0.193083 34.1983 0.416799C34.3927 0.640516 34.4944 0.929922 34.4829 1.22606C34.4829 1.81823 33.9894 2.29197 33.5551 2.29197C33.1209 2.29197 32.6471 1.75902 32.509 1.08789Z" fill="#FFFBF2"/>
<path d="M43.4838 1.13855C43.5057 0.824096 43.6481 0.530222 43.8813 0.318185C44.1145 0.106149 44.4206 -0.00768782 44.7357 0.000403593C45.0535 -0.000335821 45.3597 0.119786 45.5921 0.336416C45.8246 0.553047 45.966 0.849975 45.9877 1.167C45.9932 1.32788 45.9636 1.48803 45.9009 1.63632C45.8383 1.78462 45.7442 1.91752 45.6251 2.0258C45.506 2.13409 45.3647 2.21516 45.2112 2.26339C45.0576 2.31163 44.8954 2.32588 44.7357 2.30515C44.418 2.30589 44.1118 2.18577 43.8793 1.96914C43.6468 1.75251 43.5054 1.45558 43.4838 1.13855Z" fill="#FFFBF2"/>
<path d="M54.9886 1.15543C55.0192 0.897941 55.1368 0.658619 55.322 0.477089C55.5071 0.29556 55.7487 0.182711 56.0068 0.157227C56.1353 0.159822 56.262 0.187703 56.3797 0.239277C56.4973 0.290851 56.6037 0.365108 56.6927 0.457805C56.7817 0.550502 56.8516 0.659824 56.8983 0.779525C56.945 0.899225 56.9677 1.02696 56.9651 1.15543C56.9742 1.29061 56.954 1.42617 56.9058 1.55279C56.8576 1.67941 56.7825 1.79409 56.6858 1.88894C56.589 1.98379 56.4729 2.05656 56.3453 2.10226C56.2178 2.14795 56.0819 2.16548 55.9469 2.15364C55.8184 2.15104 55.6917 2.12316 55.574 2.07159C55.4563 2.02001 55.3499 1.94575 55.261 1.85306C55.172 1.76036 55.1021 1.65104 55.0554 1.53134C55.0087 1.41164 54.986 1.2839 54.9886 1.15543Z" fill="#FFFBF2"/>
<path d="M66.0187 1.07908C65.9673 0.943417 65.954 0.79629 65.9803 0.653615C66.0065 0.51094 66.0712 0.378151 66.1675 0.269617C66.2637 0.161082 66.3878 0.0809356 66.5263 0.0378489C66.6648 -0.00523784 66.8125 -0.0096237 66.9533 0.0251659C67.2487 0.0553975 67.521 0.19836 67.7136 0.424299C67.9062 0.650237 68.0042 0.941747 67.9873 1.23816C67.9854 1.49923 67.8901 1.75099 67.7187 1.94793C67.5473 2.14486 67.3111 2.27398 67.0528 2.31195C66.6153 2.31195 66.1977 1.75517 66.0187 1.07908Z" fill="#FFFBF2"/>
<path d="M76.9901 1.14424C77.0172 0.888429 77.1325 0.650034 77.3163 0.469978C77.5 0.289923 77.7407 0.179436 77.997 0.157484C78.1282 0.154421 78.2587 0.178689 78.38 0.228744C78.5014 0.278799 78.611 0.353547 78.7019 0.44824C78.7928 0.542933 78.863 0.655499 78.908 0.778787C78.9531 0.902074 78.972 1.03339 78.9636 1.16438C78.9765 1.29893 78.9592 1.43467 78.9129 1.56165C78.8665 1.68863 78.7924 1.80364 78.6958 1.89824C78.5993 1.99285 78.4828 2.06467 78.3549 2.10843C78.227 2.15218 78.091 2.16678 77.9567 2.15114C77.8263 2.15125 77.6972 2.12498 77.5773 2.07391C77.4573 2.02283 77.3489 1.94801 77.2586 1.85394C77.1683 1.75987 77.0979 1.6485 77.0518 1.52653C77.0056 1.40457 76.9847 1.27453 76.9901 1.14424Z" fill="#FFFBF2"/>
<path d="M87.9945 1.07464C87.8559 0.401452 88.2717 -0.0737374 88.9052 0.0252603C89.2029 0.0505543 89.479 0.190831 89.6749 0.416323C89.8708 0.641815 89.9711 0.934774 89.9546 1.23303C89.9546 1.82702 89.4794 2.30221 89.024 2.30221C88.5686 2.30221 88.1727 1.74782 87.9945 1.07464Z" fill="#FFFBF2"/>
<path d="M98.9563 1.12899C98.9755 0.856131 99.1009 0.60167 99.3056 0.420231C99.5103 0.238793 99.778 0.14484 100.051 0.158539C100.331 0.151735 100.602 0.254707 100.807 0.445399C101.011 0.636091 101.133 0.899339 101.146 1.17876C101.147 1.31738 101.119 1.45464 101.062 1.58129C101.006 1.70795 100.923 1.82106 100.819 1.91301C100.716 2.00496 100.593 2.07362 100.461 2.11436C100.328 2.15511 100.189 2.16699 100.051 2.14921C99.7715 2.15602 99.5004 2.05305 99.2957 1.86235C99.0911 1.67166 98.9692 1.40841 98.9563 1.12899Z" fill="#FFFBF2"/>
<path d="M110.146 1.1437C110.183 0.847138 110.32 0.572176 110.536 0.365172C110.751 0.158168 111.031 0.0317828 111.329 0.00732464C111.479 0.00719422 111.628 0.0374499 111.766 0.0962707C111.904 0.155092 112.029 0.241261 112.133 0.349593C112.237 0.457925 112.318 0.58618 112.371 0.726637C112.424 0.867095 112.449 1.01685 112.442 1.16689C112.449 1.32204 112.423 1.47692 112.366 1.62118C112.308 1.76543 112.221 1.89573 112.109 2.00333C111.997 2.11093 111.863 2.19336 111.717 2.24509C111.57 2.29682 111.414 2.31665 111.26 2.30327C111.11 2.30025 110.963 2.26787 110.826 2.20796C110.69 2.14804 110.566 2.06178 110.463 1.9541C110.359 1.84642 110.278 1.71943 110.224 1.58037C110.17 1.44132 110.143 1.29294 110.146 1.1437Z" fill="#FFFBF2"/>
<path d="M121.443 1.12487C121.465 0.812854 121.609 0.521883 121.843 0.314412C122.077 0.106941 122.383 -0.000492432 122.695 0.0151731C122.856 0.00752376 123.017 0.0316484 123.168 0.0861658C123.32 0.140683 123.459 0.224523 123.578 0.332885C123.697 0.441246 123.793 0.572002 123.861 0.717667C123.93 0.863331 123.969 1.02104 123.976 1.18177C123.977 1.34028 123.944 1.49723 123.88 1.64206C123.816 1.78689 123.721 1.91623 123.602 2.02137C123.484 2.12651 123.344 2.20502 123.192 2.25161C123.041 2.2982 122.881 2.31179 122.724 2.29147C122.563 2.29911 122.403 2.27499 122.251 2.22047C122.1 2.16596 121.961 2.08212 121.842 1.97375C121.723 1.86539 121.626 1.73464 121.558 1.58897C121.49 1.44331 121.451 1.2856 121.443 1.12487Z" fill="#FFFBF2"/>
<path d="M132.977 1.14658C133.001 0.916043 133.105 0.701205 133.271 0.538941C133.436 0.376676 133.653 0.277108 133.884 0.257325C134.002 0.257222 134.118 0.280899 134.226 0.326928C134.334 0.372958 134.432 0.440388 134.513 0.525162C134.595 0.609936 134.658 0.7103 134.699 0.820213C134.741 0.930126 134.76 1.04732 134.755 1.16473C134.763 1.28523 134.746 1.40611 134.703 1.51903C134.66 1.63194 134.593 1.7342 134.507 1.81875C134.42 1.90329 134.317 1.96811 134.203 2.00872C134.089 2.04933 133.968 2.06478 133.848 2.05398C133.73 2.05409 133.614 2.03041 133.506 1.98438C133.398 1.93835 133.3 1.87092 133.219 1.78615C133.137 1.70137 133.074 1.60101 133.032 1.4911C132.991 1.38118 132.972 1.26399 132.977 1.14658Z" fill="#FFFBF2"/>
</svg>
