{
    "asset" : {
        "generator" : "Khronos glTF Blender I/O v1.3.48",
        "version" : "2.0"
    },
    "scene" : 0,
    "scenes" : [
        {
            "name" : "Scene",
            "nodes" : [
                0,
                1,
                3
            ]
        }
    ],
    "nodes" : [
        {
            "mesh" : 0,
            "name" : "Teste_TAmere",
            "translation" : [
                0,
                0.4797254800796509,
                -0.3299018442630768
            ]
        },
        {
            "name" : "Spline"
        },
        {
            "camera" : 0,
            "name" : "Cam_ra_Orientation",
            "rotation" : [
                -0.7071067690849304,
                0,
                0,
                0.7071067690849304
            ]
        },
        {
            "children" : [
                2
            ],
            "name" : "Cam_ra",
            "rotation" : [
                0.6551949381828308,
                0.29989680647850037,
                -0.31922128796577454,
                0.6155316829681396
            ],
            "translation" : [
                2.373687267303467,
                0,
                1.9032799005508423
            ]
        }
    ],
    "cameras" : [
        {
            "name" : "Cam_raShape",
            "perspective" : {
                "aspectRatio" : 1.7777777777777777,
                "yfov" : 0.5483348957076358,
                "zfar" : 100000,
                "znear" : 0.10000000149011612
            },
            "type" : "perspective"
        }
    ],
    "animations" : [
        {
            "channels" : [
                {
                    "sampler" : 0,
                    "target" : {
                        "node" : 3,
                        "path" : "translation"
                    }
                },
                {
                    "sampler" : 1,
                    "target" : {
                        "node" : 3,
                        "path" : "rotation"
                    }
                },
                {
                    "sampler" : 2,
                    "target" : {
                        "node" : 3,
                        "path" : "scale"
                    }
                }
            ],
            "name" : "Action",
            "samplers" : [
                {
                    "input" : 3,
                    "interpolation" : "LINEAR",
                    "output" : 4
                },
                {
                    "input" : 5,
                    "interpolation" : "LINEAR",
                    "output" : 6
                },
                {
                    "input" : 7,
                    "interpolation" : "STEP",
                    "output" : 8
                }
            ]
        }
    ],
    "meshes" : [
        {
            "name" : "Teste_TAmereShape",
            "primitives" : [
                {
                    "attributes" : {
                        "POSITION" : 0,
                        "NORMAL" : 1
                    },
                    "indices" : 2
                }
            ]
        }
    ],
    "accessors" : [
        {
            "bufferView" : 0,
            "componentType" : 5126,
            "count" : 171,
            "max" : [
                0.5,
                0.9797254800796509,
                0.8299018740653992
            ],
            "min" : [
                -0.5,
                -0.9797254800796509,
                -0.8299018740653992
            ],
            "type" : "VEC3"
        },
        {
            "bufferView" : 1,
            "componentType" : 5126,
            "count" : 171,
            "type" : "VEC3"
        },
        {
            "bufferView" : 2,
            "componentType" : 5123,
            "count" : 948,
            "type" : "SCALAR"
        },
        {
            "bufferView" : 3,
            "componentType" : 5126,
            "count" : 177,
            "max" : [
                2.933333333333333
            ],
            "min" : [
                0
            ],
            "type" : "SCALAR"
        },
        {
            "bufferView" : 4,
            "componentType" : 5126,
            "count" : 177,
            "type" : "VEC3"
        },
        {
            "bufferView" : 5,
            "componentType" : 5126,
            "count" : 181,
            "max" : [
                3
            ],
            "min" : [
                0
            ],
            "type" : "SCALAR"
        },
        {
            "bufferView" : 6,
            "componentType" : 5126,
            "count" : 181,
            "type" : "VEC4"
        },
        {
            "bufferView" : 7,
            "componentType" : 5126,
            "count" : 1,
            "max" : [
                0
            ],
            "min" : [
                0
            ],
            "type" : "SCALAR"
        },
        {
            "bufferView" : 8,
            "componentType" : 5126,
            "count" : 1,
            "type" : "VEC3"
        }
    ],
    "bufferViews" : [
        {
            "buffer" : 0,
            "byteLength" : 2052,
            "byteOffset" : 0
        },
        {
            "buffer" : 0,
            "byteLength" : 2052,
            "byteOffset" : 2052
        },
        {
            "buffer" : 0,
            "byteLength" : 1896,
            "byteOffset" : 4104
        },
        {
            "buffer" : 0,
            "byteLength" : 708,
            "byteOffset" : 6000
        },
        {
            "buffer" : 0,
            "byteLength" : 2124,
            "byteOffset" : 6708
        },
        {
            "buffer" : 0,
            "byteLength" : 724,
            "byteOffset" : 8832
        },
        {
            "buffer" : 0,
            "byteLength" : 2896,
            "byteOffset" : 9556
        },
        {
            "buffer" : 0,
            "byteLength" : 4,
            "byteOffset" : 12452
        },
        {
            "buffer" : 0,
            "byteLength" : 12,
            "byteOffset" : 12456
        }
    ],
    "buffers" : [
        {
            "byteLength" : 12468,
            "uri" : "data:application/octet-stream;base64,"
        }
    ]
}
