<svg width="29" height="29" viewBox="0 0 29 29" fill="none" xmlns="http://www.w3.org/2000/svg">
<path d="M21.5834 6.71632C21.4845 6.80153 21.3698 6.86642 21.2457 6.90726C21.1217 6.9481 20.9907 6.9641 20.8604 6.95434C20.73 6.94458 20.6029 6.90925 20.4861 6.85038C20.3694 6.79151 20.2654 6.71025 20.1802 6.61126C20.0095 6.42353 19.9076 6.18366 19.8911 5.93085C19.8746 5.67805 19.9445 5.42728 20.0894 5.21953C20.3149 5.0417 20.6004 4.95731 20.8869 4.98381C21.1733 5.01031 21.4388 5.14567 21.6283 5.36189C21.7218 5.44991 21.7956 5.55678 21.8445 5.67538C21.8935 5.79398 21.9167 5.92159 21.9124 6.04973C21.9082 6.17786 21.8766 6.30358 21.8199 6.41852C21.7631 6.53346 21.6825 6.63498 21.5834 6.71632Z" fill="#304F65"/>
<path d="M16.3723 4.09759C16.3626 4.25406 16.3178 4.40585 16.241 4.54218C16.1642 4.67852 16.0573 4.79607 15.9278 4.88651C15.7984 4.97695 15.6496 5.03806 15.4921 5.06552C15.3345 5.09297 15.172 5.0861 15.016 5.04539C14.7248 4.97026 14.4595 4.81708 14.2503 4.60332C14.0411 4.38956 13.8964 4.12384 13.8328 3.83648C13.8527 3.52657 14.4327 3.31458 15.1615 3.2704C15.8904 3.22621 16.4228 3.50047 16.3723 4.09759Z" fill="#304F65"/>
<path d="M9.53661 4.30761C9.65353 4.55127 9.68901 4.82586 9.63781 5.09091C9.58662 5.35595 9.45147 5.59744 9.25227 5.77979C9.13797 5.84314 9.01199 5.88275 8.88189 5.89622C8.75179 5.9097 8.62026 5.89676 8.49521 5.8582C8.37017 5.81964 8.25418 5.75625 8.15424 5.67183C8.0543 5.58742 7.97246 5.48372 7.91364 5.36699C7.85861 5.27019 7.82552 5.16255 7.81669 5.05166C7.80786 4.94077 7.82351 4.82934 7.86253 4.72522C7.90156 4.62111 7.96301 4.52684 8.04255 4.44908C8.12209 4.37131 8.21779 4.31195 8.32288 4.27516C8.80493 4.00001 9.32257 3.9272 9.53661 4.30761Z" fill="#304F65"/>
<path d="M5.56734 8.92524C5.95236 9.1498 6.11752 9.85365 5.93895 10.5089C5.8976 10.6582 5.82648 10.7977 5.72985 10.9189C5.63321 11.0401 5.51304 11.1405 5.37654 11.2142C5.24003 11.2879 5.08999 11.3333 4.93539 11.3478C4.7808 11.3622 4.62482 11.3454 4.47681 11.2982C3.85384 11.0647 3.66374 10.3916 4.1008 9.7263C4.53787 9.06095 5.17792 8.71241 5.56734 8.92524Z" fill="#304F65"/>
<path d="M3.98 15.1421C4.44873 15.0332 4.92046 15.5603 5.02686 16.2132C5.07687 16.3393 5.10132 16.4741 5.0988 16.6097C5.09628 16.7453 5.06683 16.879 5.01216 17.0031C4.95749 17.1272 4.87869 17.2391 4.78031 17.3325C4.68194 17.4259 4.56595 17.4989 4.43906 17.5472C4.31102 17.5993 4.17243 17.6208 4.03448 17.6097C3.89652 17.5986 3.76306 17.5553 3.64485 17.4833C3.52664 17.4113 3.42699 17.3126 3.35392 17.1951C3.28086 17.0777 3.23643 16.9448 3.22422 16.8072C3.15979 16.4854 3.19806 16.1516 3.33363 15.8529C3.46921 15.5542 3.69527 15.3056 3.98 15.1421Z" fill="#304F65"/>
<path d="M6.90299 20.6854C7.28342 20.0538 7.96997 20.1391 8.4492 20.7775C8.92844 21.4159 9.02353 22.0824 8.66962 22.4515C8.4837 22.665 8.22916 22.8074 7.9495 22.8542C7.66984 22.901 7.38241 22.8495 7.13633 22.7083C6.88475 22.4406 6.72619 22.0993 6.68415 21.7349C6.64212 21.3705 6.71886 21.0025 6.90299 20.6854Z" fill="#304F65"/>
<path d="M12.2941 24.5348C12.7045 23.9694 13.2965 23.5754 13.9554 23.4291C14.6325 23.2115 15.0833 23.4983 15.0334 24.1278C14.9916 24.5104 14.8124 24.8674 14.5322 25.1269C14.2519 25.3863 13.8913 25.5288 13.5231 25.5258C12.7114 25.4572 12.1297 25.0231 12.2941 24.5348Z" fill="#304F65"/>
</svg>
