<svg width="94" height="97" viewBox="0 0 94 97" fill="none" xmlns="http://www.w3.org/2000/svg">
<path d="M49.3999 3.17071C49.8939 5.12225 48.935 6.46212 47.2787 6.08346C46.4841 5.97588 45.7467 5.60984 45.1798 5.04155C44.6129 4.47326 44.2477 3.73414 44.1404 2.93769C44.1146 2.28772 44.3065 1.6478 44.6857 1.11991C45.0649 0.592027 45.6094 0.206556 46.2326 0.0249359C47.3658 -0.208084 48.7606 1.21916 49.3999 3.17071Z" fill="white" fill-opacity="0.5"/>
<path d="M22.7761 10.9909C23.1009 11.7278 23.1313 12.5615 22.861 13.3203C22.5907 14.079 22.0403 14.7048 21.3232 15.0687C21.015 15.3171 20.654 15.4914 20.2681 15.578C19.8822 15.6647 19.4816 15.6615 19.0971 15.5687C18.7126 15.4758 18.3545 15.2958 18.0502 15.0425C17.746 14.7892 17.5038 14.4694 17.3422 14.1075C16.9741 13.2901 16.9004 12.37 17.1336 11.5042C17.3667 10.6384 17.8923 9.88045 18.6208 9.35973C18.9939 9.1543 19.4075 9.03356 19.8324 9.00606C20.2572 8.97855 20.6829 9.04495 21.0793 9.20055C21.4757 9.35616 21.8331 9.59717 22.1263 9.90654C22.4196 10.2159 22.6414 10.5861 22.7761 10.9909Z" fill="white" fill-opacity="0.5"/>
<path d="M5.81722 32.0362C6.13258 32.2059 6.41029 32.4379 6.63355 32.7183C6.8568 32.9987 7.02095 33.3217 7.11604 33.6675C7.21113 34.0134 7.23518 34.375 7.18675 34.7304C7.13831 35.0859 7.0184 35.4278 6.83426 35.7354C6.28215 37.1627 5.46852 37.687 4.74206 36.9588C3.72653 36.0205 3.07753 34.7504 2.91138 33.3761C2.91138 32.0362 4.45147 31.3954 5.81722 32.0362Z" fill="white" fill-opacity="0.5"/>
<path d="M2.23813 58.2507C2.68734 58.0303 3.17862 57.9092 3.67863 57.8958C4.17863 57.8825 4.67565 57.9771 5.13595 58.1732C5.59626 58.3694 6.00908 58.6625 6.34639 59.0327C6.6837 59.4029 6.93761 59.8415 7.09088 60.3188C7.29219 61.2284 7.14366 62.1806 6.67498 62.9852C6.20631 63.7898 5.452 64.3875 4.5628 64.6588C3.69548 64.6213 2.85435 64.3498 2.12812 63.873C1.40188 63.3962 0.817465 62.7319 0.436507 61.9499C-0.551479 60.3479 0.174982 58.775 2.23813 58.2507Z" fill="white" fill-opacity="0.5"/>
<path d="M18.2553 82.1352C18.9647 81.4634 19.8577 81.0187 20.8204 80.8579C21.7831 80.697 22.7717 80.8274 23.6602 81.2322C24.0818 81.4691 24.4487 81.7926 24.7369 82.1815C25.025 82.5705 25.2279 83.0161 25.3322 83.4892C25.4365 83.9623 25.4398 84.4521 25.3419 84.9265C25.2441 85.401 25.0472 85.8493 24.7644 86.2422C23.8599 86.8317 22.7911 87.1157 21.7141 87.0529C20.6371 86.99 19.6084 86.5834 18.7783 85.8926C16.9767 84.7567 16.8024 83.2129 18.2553 82.1352Z" fill="white" fill-opacity="0.5"/>
<path d="M42.6026 93.2025C43.0231 92.1627 43.704 91.2492 44.5795 90.5502C45.455 89.8512 46.4955 89.3903 47.6006 89.212C48.0878 89.1557 48.5814 89.1997 49.051 89.3412C49.5207 89.4828 49.9566 89.7189 50.332 90.0353C50.7074 90.3516 51.0145 90.7414 51.2343 91.1808C51.4542 91.6202 51.5823 92.1 51.6107 92.5908C51.6107 94.688 49.4894 96.4648 46.6126 96.6104C43.7358 96.756 41.9342 95.2997 42.6026 93.2025Z" fill="white" fill-opacity="0.5"/>
<path d="M72.4664 84.6454C71.7399 83.1307 72.9023 80.8588 74.6167 79.6646C74.9166 79.4029 75.2699 79.21 75.652 79.0993C76.034 78.9887 76.4355 78.963 76.8284 79.024C77.2214 79.085 77.5963 79.2313 77.927 79.4526C78.2577 79.6739 78.5362 79.965 78.743 80.3054C79.0505 80.6218 79.2821 81.0042 79.4204 81.4236C79.5586 81.843 79.6 82.2884 79.5412 82.7262C79.4824 83.164 79.325 83.5826 79.081 83.9504C78.837 84.3182 78.5128 84.6256 78.1328 84.8493C76.2731 86.1309 73.3672 86.1018 72.4664 84.6454Z" fill="white" fill-opacity="0.5"/>
<path d="M89.0444 61.906C88.4504 60.5565 88.3913 59.0304 88.8791 57.6365C89.556 56.6883 91.0095 56.9028 92.0564 58.187C92.4751 58.8923 92.6567 59.7138 92.5744 60.531C92.4922 61.3483 92.1505 62.1182 91.5995 62.728C90.5708 63.8188 89.5266 63.4312 89.0444 61.906Z" fill="white" fill-opacity="0.5"/>
<path d="M89.7074 37.3932C87.499 37.3932 85.4068 35.9951 85.2034 34.7135C84.9999 33.4319 86.511 32.3833 88.2835 31.8007C88.6573 31.6394 89.0607 31.5585 89.4676 31.5634C89.8746 31.5682 90.2759 31.6587 90.6458 31.829C91.0156 31.9992 91.3456 32.2454 91.6144 32.5517C91.8833 32.8579 92.085 33.2173 92.2064 33.6067C92.4021 34.0192 92.4882 34.4754 92.4562 34.9311C92.4242 35.3868 92.2752 35.8264 92.0238 36.2074C91.7723 36.5884 91.4269 36.8977 91.0211 37.1055C90.6152 37.3133 90.1627 37.4124 89.7074 37.3932Z" fill="white" fill-opacity="0.5"/>
<path d="M75.5547 13.8317C75.0637 14.6434 74.2844 15.2388 73.3734 15.4982C72.4623 15.7576 71.4871 15.6617 70.6438 15.2298C69.962 14.6155 69.5514 13.7549 69.5024 12.8373C69.4534 11.9197 69.7698 11.0201 70.3823 10.3363C70.5745 9.94821 70.844 9.60363 71.1741 9.32383C71.5042 9.04403 71.888 8.83493 72.3018 8.70941C72.7155 8.58389 73.1506 8.54461 73.5801 8.59398C74.0096 8.64335 74.4244 8.78033 74.7991 8.99648C75.5192 9.55187 75.9991 10.3632 76.1396 11.2629C76.2802 12.1627 76.0708 13.0822 75.5547 13.8317Z" fill="white" fill-opacity="0.5"/>
<path d="M35.7679 9.58025C36.5815 11.2405 36.349 12.9299 35.0995 13.2794C34.392 13.3584 33.6779 13.2089 33.0611 12.8526C32.4443 12.4963 31.9572 11.952 31.6706 11.2988C31.4353 10.7274 31.4113 10.0905 31.6031 9.50303C31.795 8.91553 32.1899 8.41607 32.7167 8.09474C33.6757 7.42481 34.8671 8.03649 35.7679 9.58025Z" fill="white" fill-opacity="0.5"/>
<path d="M16.3281 23.5894C16.575 23.8357 16.7709 24.1285 16.9045 24.4509C17.0382 24.7733 17.107 25.119 17.107 25.4681C17.107 25.8173 17.0382 26.163 16.9045 26.4854C16.7709 26.8078 16.575 27.1006 16.3281 27.3469C16.1195 27.6284 15.8566 27.8652 15.5551 28.0431C15.2536 28.221 14.9196 28.3364 14.5728 28.3826C14.2259 28.4288 13.8734 28.4047 13.536 28.3119C13.1986 28.219 12.8833 28.0593 12.6086 27.842C12.1134 27.2221 11.8436 26.4516 11.8436 25.6575C11.8436 24.8633 12.1134 24.0928 12.6086 23.4729C12.8533 23.2224 13.1472 23.0256 13.4717 22.8948C13.7962 22.764 14.1443 22.7021 14.4938 22.713C14.8434 22.724 15.1869 22.8075 15.5027 22.9584C15.8184 23.1092 16.0994 23.3241 16.3281 23.5894Z" fill="white" fill-opacity="0.5"/>
<path d="M8.01889 45.1476C8.33424 45.157 8.64323 45.2388 8.92211 45.3867C9.20099 45.5345 9.44232 45.7445 9.62754 46.0005C9.81277 46.2565 9.93696 46.5517 9.99057 46.8634C10.0442 47.175 10.0258 47.4948 9.93675 47.7982C9.67522 49.1963 8.9197 50.1575 8.25136 49.9536C7.32419 49.3266 6.6536 48.3855 6.36256 47.303C6.24848 47.0484 6.20542 46.7675 6.23797 46.4902C6.27052 46.213 6.37746 45.9498 6.54741 45.7286C6.71736 45.5074 6.94395 45.3366 7.20307 45.2343C7.46219 45.132 7.74413 45.102 8.01889 45.1476Z" fill="white" fill-opacity="0.5"/>
<path d="M12.4994 68.9409C13.2245 68.3871 14.1259 68.1172 15.0352 68.1815C15.9444 68.2458 16.7991 68.6401 17.4394 69.2904C17.8482 70.0378 17.9705 70.9092 17.7831 71.7407C17.5958 72.5721 17.1119 73.3063 16.4223 73.8052C15.728 74.0842 14.957 74.1055 14.2484 73.8652C13.5398 73.6249 12.9402 73.1387 12.5575 72.4944C11.279 71.3002 11.1337 69.9021 12.4994 68.9409Z" fill="white" fill-opacity="0.5"/>
<path d="M32.6391 84.4664C33.1369 83.8008 33.8043 83.2818 34.5713 82.964C35.3383 82.6462 36.1765 82.5414 36.9979 82.6605C37.4208 82.7389 37.8232 82.9035 38.18 83.1442C38.5368 83.385 38.8405 83.6966 39.0721 84.0599C39.3037 84.4232 39.4583 84.8303 39.5264 85.256C39.5945 85.6817 39.5746 86.1168 39.4678 86.5345C38.9448 88.1656 36.8235 88.6026 34.7894 87.7287C32.7554 86.8549 31.9708 85.6024 32.6391 84.4664Z" fill="white" fill-opacity="0.5"/>
<path d="M56.4974 86.0674C56.5889 85.1001 56.959 84.1803 57.5626 83.4201C58.1662 82.6599 58.9774 82.092 59.8973 81.7856C60.291 81.5964 60.7187 81.4884 61.1549 81.4683C61.5911 81.4482 62.0269 81.5162 62.4363 81.6684C62.8457 81.8206 63.2204 82.0538 63.538 82.3542C63.8556 82.6546 64.1097 83.0159 64.2851 83.4168C65.0987 85.1062 64.0236 87.0577 61.6698 87.7568C59.3161 88.4558 56.759 87.6985 56.4974 86.0674Z" fill="white" fill-opacity="0.5"/>
<path d="M76.6804 72.1203C75.3437 71.2756 75.6924 69.2075 77.0872 67.8094C78.482 66.4113 79.8187 66.0909 80.8938 66.9938C81.5184 67.4009 81.9632 68.0329 82.1363 68.7592C82.3093 69.4856 82.1974 70.2509 81.8237 70.8969C81.1942 71.6037 80.3635 72.1 79.4438 72.3187C78.5241 72.5375 77.5596 72.4682 76.6804 72.1203Z" fill="white" fill-opacity="0.5"/>
<path d="M87.1772 50.2395C85.9086 49.6249 84.8846 48.5984 84.2714 47.3268C83.8064 46.2491 84.4748 45.3753 85.8115 45.3753C86.5482 45.3734 87.258 45.6522 87.7975 46.1551C88.337 46.658 88.6657 47.3475 88.7173 48.0841C88.8335 49.657 88.1361 50.5308 87.1772 50.2395Z" fill="white" fill-opacity="0.5"/>
<path d="M80.3727 26.2111C79.5204 26.4134 78.6292 26.3794 77.7948 26.1125C76.9603 25.8457 76.2141 25.3561 75.6362 24.6964C74.8807 23.677 75.6362 22.5992 77.1763 21.7837C77.7455 21.3388 78.4595 21.1222 79.1793 21.1761C79.899 21.2299 80.5731 21.5503 81.0701 22.0749C81.3498 22.37 81.5572 22.7262 81.6758 23.1155C81.7943 23.5048 81.8208 23.9165 81.7531 24.3178C81.6855 24.7191 81.5255 25.0992 81.2859 25.4278C81.0463 25.7564 80.7336 26.0246 80.3727 26.2111Z" fill="white" fill-opacity="0.5"/>
<path d="M61.0155 11.0946C60.7796 11.9102 60.2602 12.6142 59.5513 13.079C58.8423 13.5439 57.9907 13.7389 57.1508 13.6287C56.772 13.5409 56.4185 13.3667 56.1178 13.1196C55.8171 12.8726 55.5774 12.5594 55.4171 12.2043C55.2569 11.8492 55.1805 11.4619 55.1939 11.0724C55.2073 10.6829 55.3101 10.3018 55.4944 9.95866C55.708 9.18254 56.1844 8.50514 56.8419 8.04273C57.4994 7.58033 58.2969 7.36177 59.0977 7.42457C59.4653 7.53737 59.8069 7.72217 60.1027 7.96826C60.3986 8.21435 60.6427 8.51683 60.8211 8.85819C60.9995 9.19954 61.1085 9.57299 61.1419 9.95688C61.1753 10.3408 61.1323 10.7275 61.0155 11.0946Z" fill="white" fill-opacity="0.5"/>
</svg>
