<svg width="40" height="40" viewBox="0 0 40 40" fill="none" xmlns="http://www.w3.org/2000/svg">
<path d="M29.5739 8.63178C29.4398 8.75768 29.2821 8.85591 29.1098 8.92084C28.9375 8.98576 28.754 9.01611 28.5698 9.01014C28.3856 9.00417 28.2044 8.962 28.0365 8.88604C27.8686 8.81009 27.7173 8.70184 27.5913 8.5675C27.3397 8.31327 27.1818 7.9815 27.1435 7.62642C27.1052 7.27134 27.1888 6.91396 27.3804 6.61272C27.6875 6.3488 28.0846 6.21291 28.4896 6.23314C28.8946 6.25338 29.2765 6.42819 29.5564 6.72143C29.6934 6.83983 29.8036 6.98594 29.8797 7.15006C29.9557 7.31418 29.9959 7.49254 29.9976 7.67327C29.9993 7.854 29.9623 8.03295 29.8893 8.19822C29.8162 8.36349 29.7087 8.51129 29.5739 8.63178Z" fill="white"/>
<path d="M22.0781 5.25416C22.0738 5.47512 22.0197 5.69157 21.9197 5.88818C21.8196 6.08478 21.6761 6.25673 21.4992 6.39183C21.3223 6.52693 21.1164 6.62188 20.8961 6.66995C20.6758 6.71802 20.4465 6.71804 20.2244 6.67C19.8098 6.58156 19.427 6.38163 19.1196 6.09304C18.8121 5.80445 18.5925 5.43882 18.4858 5.03788C18.4953 4.6002 19.2996 4.26702 20.3235 4.16131C21.3474 4.0556 22.1137 4.41012 22.0781 5.25416Z" fill="white"/>
<path d="M12.4629 5.95793C12.6421 6.29414 12.7085 6.67877 12.6522 7.05513C12.5959 7.43149 12.42 7.77968 12.1503 8.0484C11.9931 8.14444 11.818 8.20774 11.6355 8.23448C11.4531 8.26122 11.2671 8.25085 11.0887 8.204C10.9102 8.15714 10.7431 8.07477 10.5973 7.96184C10.4515 7.8489 10.33 7.70774 10.2402 7.54683C10.157 7.41378 10.1039 7.26414 10.0849 7.10849C10.0658 6.95284 10.0812 6.79495 10.13 6.64598C10.1787 6.49701 10.2597 6.36057 10.3671 6.2463C10.4744 6.13203 10.6057 6.0427 10.7515 5.98463C11.414 5.56832 12.1388 5.4349 12.4629 5.95793Z" fill="white"/>
<path d="M7.14776 12.6983C7.70345 12.9916 7.97805 13.9731 7.76563 14.9066C7.7163 15.1195 7.62445 15.3201 7.49558 15.4966C7.3667 15.673 7.20344 15.8217 7.01557 15.9336C6.8277 16.0456 6.61908 16.1185 6.4022 16.148C6.18532 16.1776 5.96463 16.1632 5.75335 16.1056C4.86199 15.8139 4.55409 14.8772 5.12999 13.914C5.70589 12.9509 6.58658 12.4218 7.14776 12.6983Z" fill="white"/>
<path d="M5.28294 21.5493C5.93663 21.3679 6.63248 22.0822 6.82128 22.9953C6.89925 23.1701 6.94174 23.3585 6.94627 23.5496C6.95081 23.7407 6.91731 23.9308 6.84771 24.1088C6.77811 24.2868 6.6738 24.4492 6.54081 24.5866C6.40783 24.724 6.24881 24.8337 6.07298 24.9093C5.89574 24.9904 5.70183 25.0288 5.50686 25.0214C5.3119 25.014 5.12134 24.961 4.95055 24.8667C4.77976 24.7723 4.63352 24.6392 4.52361 24.4782C4.41369 24.3172 4.34319 24.1327 4.31778 23.9396C4.20784 23.4901 4.24182 23.0177 4.41496 22.5889C4.58809 22.1602 4.89167 21.7965 5.28294 21.5493Z" fill="white"/>
<path d="M9.73049 29.1825C10.2286 28.2703 11.2007 28.3495 11.9138 29.22C12.6268 30.0906 12.8005 31.0236 12.3241 31.5646C12.0749 31.8764 11.7249 32.0921 11.3338 32.1747C10.9427 32.2574 10.5348 32.2019 10.1798 32.0177C9.80951 31.6557 9.56581 31.1844 9.48487 30.6737C9.40393 30.163 9.49006 29.6401 9.73049 29.1825Z" fill="white"/>
<path d="M17.5533 34.2826C18.0976 33.4618 18.9079 32.8715 19.8272 32.6261C20.7679 32.2793 21.4199 32.6564 21.3873 33.5459C21.3511 34.0873 21.1201 34.6009 20.7408 34.983C20.3616 35.3651 19.8622 35.5874 19.3434 35.605C18.196 35.5568 17.3508 34.9801 17.5533 34.2826Z" fill="white"/>
</svg>
